<svg id="Layer_1" data-name="Layer 1" xmlns="http://www.w3.org/2000/svg" xmlns:xlink="http://www.w3.org/1999/xlink" viewBox="0 0 100 100"><defs><style>.cls-1{fill:url(#linear-gradient);}.cls-2{fill:url(#linear-gradient-2);}.cls-3{fill:url(#linear-gradient-3);}.cls-4{fill:url(#linear-gradient-4);}.cls-5{fill:url(#linear-gradient-5);}</style><linearGradient id="linear-gradient" x1="38.97" y1="31.76" x2="41.42" y2="77.91" gradientUnits="userSpaceOnUse"><stop offset="0.11" stop-color="#f9e685"/><stop offset="0.19" stop-color="#f8e381"/><stop offset="0.27" stop-color="#f5da76"/><stop offset="0.35" stop-color="#efcb63"/><stop offset="0.42" stop-color="#e7b648"/><stop offset="0.43" stop-color="#e6b445"/><stop offset="0.51" stop-color="#eec960"/><stop offset="0.6" stop-color="#f4d975"/><stop offset="0.68" stop-color="#f8e382"/><stop offset="0.76" stop-color="#f9e686"/><stop offset="0.81" stop-color="#f7e280"/><stop offset="0.87" stop-color="#f3d571"/><stop offset="0.95" stop-color="#ebc157"/><stop offset="1" stop-color="#e4ae3e"/></linearGradient><linearGradient id="linear-gradient-2" x1="48.77" y1="31.24" x2="51.22" y2="77.39" gradientUnits="userSpaceOnUse"><stop offset="0" stop-color="#f9e685"/><stop offset="0.01" stop-color="#f8e381"/><stop offset="0.03" stop-color="#f5da76"/><stop offset="0.04" stop-color="#efcb63"/><stop offset="0.05" stop-color="#e7b648"/><stop offset="0.05" stop-color="#e6b445"/><stop offset="0.23" stop-color="#eec960"/><stop offset="0.41" stop-color="#f4d975"/><stop offset="0.59" stop-color="#f8e382"/><stop offset="0.76" stop-color="#f9e686"/><stop offset="0.81" stop-color="#f7e280"/><stop offset="0.87" stop-color="#f3d571"/><stop offset="0.95" stop-color="#ebc157"/><stop offset="1" stop-color="#e4ae3e"/></linearGradient><linearGradient id="linear-gradient-3" x1="53.41" y1="84.48" x2="53.86" y2="16.13" xlink:href="#linear-gradient"/><linearGradient id="linear-gradient-4" x1="49.9" y1="84.45" x2="50.35" y2="16.11" xlink:href="#linear-gradient"/><linearGradient id="linear-gradient-5" x1="9.07" y1="5.43" x2="94.84" y2="98.82" xlink:href="#linear-gradient"/></defs><path class="cls-1" d="M37.4,70.12A1.66,1.66,0,0,0,36,69.36a1.56,1.56,0,0,0-1.3.66v0a1.15,1.15,0,0,0-.21.72A1.71,1.71,0,0,0,35,72c3.25,3,8.35,4.61,12.87,5,0-.15,0-.31,0-.48A13.65,13.65,0,0,1,37.4,70.12Z"/><path class="cls-2" d="M51.83,53.44c-1.32-.62-2.63-1.22-3.9-1.85-5.12-2.51-9.45-5.29-9.45-10.08s4.06-7.35,9.45-7.74c.45,0,.9-.05,1.37-.05a13.83,13.83,0,0,1,2.53.24,12.7,12.7,0,0,1,8.45,5.5,1.49,1.49,0,0,0,1.19.67,1.35,1.35,0,0,0,1.13-.62.9.9,0,0,0,.22-.61,1.68,1.68,0,0,0-.6-1.18A21.07,21.07,0,0,0,51.83,33.4a18.82,18.82,0,0,0-2.69-.19c-.41,0-.81,0-1.21,0-6.48.34-12.43,3.46-12.43,9.4s6.13,9,12.43,12c1.31.63,2.63,1.24,3.9,1.88,5.23,2.62,9.69,5.56,9.69,10.49,0,6.63-5.55,8.88-9.68,9.4l0,.49c6.32-.66,12.63-4.36,12.63-10.66C64.5,59.7,58.22,56.45,51.83,53.44Z"/><path class="cls-3" d="M65.46,23.89a11.85,11.85,0,0,0-8.37-3.68C49,20.21,47.93,27.5,47.93,31V43.73H41.51v.65h6.42v7.21c1.27.63,2.58,1.23,3.9,1.85V44.38h8.29v-.65H51.83V27.36c0-4.12,2.16-6.71,5.12-6.71s4.69,2.52,5.63,5.05a1.83,1.83,0,0,0,1.73,1.22,1.76,1.76,0,0,0,1.22-.57l.08-.08a1.33,1.33,0,0,0,.36-1A2.28,2.28,0,0,0,65.46,23.89Z"/><path class="cls-4" d="M52.55,80.17a8.42,8.42,0,0,1-.68-3.23l0-.49c0-.3,0-.63,0-1V56.56c-1.27-.64-2.59-1.25-3.9-1.88v20.8c0,.35,0,.69,0,1s0,.33,0,.48c-.21,3.53-1.2,4.22-2.41,4.22v.65h8.87v-.65A1.86,1.86,0,0,1,52.55,80.17Z"/><path class="cls-5" d="M50,5A33.42,33.42,0,0,0,16.62,38.38V61.62a33.38,33.38,0,1,0,66.76,0V38.38A33.42,33.42,0,0,0,50,5ZM82,61.62a32,32,0,1,1-63.94,0V38.38a32,32,0,0,1,63.94,0Z"/></svg>